<svg xmlns="http://www.w3.org/2000/svg" viewBox="0 0 391.29 285.9"><defs><style>.cls-1,.cls-10{fill:#ffc5d4;}.cls-1,.cls-2,.cls-3,.cls-4,.cls-5,.cls-7,.cls-8,.cls-9{stroke:#000;stroke-miterlimit:10;}.cls-1,.cls-2,.cls-4,.cls-5,.cls-7,.cls-8{stroke-width:5px;}.cls-2,.cls-3,.cls-4,.cls-5,.cls-9{fill:none;}.cls-2,.cls-3{opacity:0.18;}.cls-3{stroke-width:7px;}.cls-4{opacity:0.2;}.cls-6{fill:#fff;}.cls-7,.cls-8{fill:#ea94ad;}.cls-7{opacity:0.1;}.cls-9{stroke-width:4px;}</style></defs><title>Asset 1</title><g id="Layer_2" data-name="Layer 2"><g id="Layer_1-2" data-name="Layer 1"><path class="cls-1" d="M66.48,230c-9.6,20.62-3.75,41.23,8.51,47.73,11.92,6.33,26.85-2.31,28-3,14.56-8.69,16.76-24.91,17-27"/><path class="cls-1" d="M337,80.06c-32.34-44.29-85.54-50.22-96.59-51.21v0A58.66,58.66,0,0,0,214.49,2.76a50.44,50.44,0,0,0-9,5.12A51.84,51.84,0,0,0,193,20.68a121.87,121.87,0,0,0-126,0c-.3-1.43-2.29-10.17-10.5-14.84A20.93,20.93,0,0,0,44,3.28a68.88,68.88,0,0,0-20.5,17.91A70.81,70.81,0,0,0,11,47.3,56.12,56.12,0,0,0,21.6,59.72l.85.72-1-.35C16,69.23.24,97.83,4.49,135.85c4.92,44,33.11,69.88,42,77.8a124.92,124.92,0,0,0,21,15.12h0c-9.6,21.1-3.75,42.2,8.51,48.86,11.92,6.47,26.85-2.37,28-3.07,14.56-8.9,16.76-25.5,17-27.64l-6.5-2.21c2.34.32,4.37.53,6,.67,20.69,1.29,39.38,1.73,55.69,1.72-.11,17,4.08,29.51,12.31,34.11,4.82,2.7,10.18,2.22,12,2.05,20.5-1.84,31.91-29.65,35.5-38.39l0-.07c30.69-2.67,40.09-7.21,47.47-12.72l.34-.27.16.78c-14.3,16.13-10.57,38.1,0,45,9.28,6.09,26.68,2.48,37-12.28C368.64,207.15,373.18,129.61,337,80.06Z"/><path class="cls-1" d="M283,233.76c-14.3,15.76-10.57,37.23,0,44,9.28,5.95,26.68,2.43,37-12,47.65-56.84,52.19-138.59,16-187-32.34-43.26-85.54-49.05-96.59-50"/><path class="cls-1" d="M21.49,59.26c-5.44,8.56-23.37,39.08-18,80,5.78,44,34.54,69.51,42,76,29.41,25.59,62,30,74,31a883.63,883.63,0,0,0,89,1c44.2-1.73,59.92-5.72,69.26-10.93a54,54,0,0,0,4.74-3.07c22.7-16.12,29.71-44.41,32-64"/><path class="cls-1" d="M212.49,24.26a71.07,71.07,0,0,0-1,30,69.48,69.48,0,0,0,5,16,33.88,33.88,0,0,0,29-22,59.34,59.34,0,0,0-13-30,58.56,58.56,0,0,0-19-15A50.45,50.45,0,0,0,192,20.76a124.32,124.32,0,0,0-126,0c-.3-1.39-2.29-9.93-10.5-14.5A21.47,21.47,0,0,0,43,3.76a68.24,68.24,0,0,0-33,43A55,55,0,0,0,20.6,58.9a53.26,53.26,0,0,0,5.89,4.36A54.44,54.44,0,0,0,45,70.76a110.73,110.73,0,0,0,3.5-25.5,122.59,122.59,0,0,0-1-20"/><path class="cls-2" d="M46,73.76a122.35,122.35,0,0,0,3.5-25.5,122.59,122.59,0,0,0-1-20"/><path class="cls-3" d="M211.49,26.26a71.07,71.07,0,0,0-1,30,69.48,69.48,0,0,0,5,16"/><path class="cls-1" d="M242,208.76a91.54,91.54,0,0,1-7,37c-3.59,8.54-15,35.71-35.5,37.5-1.82.16-7.18.63-12-2-13.62-7.44-16.2-36-6.5-70.5"/><path class="cls-4" d="M245,208.76c.09,6.53-3.7,29.15-7,37"/><path class="cls-4" d="M119.15,247.81a131,131,0,0,1-53.66-15.55"/><path class="cls-5" d="M246,173.76c4.29-9.94,15.36-39.31,5-73-4.14-13.48-10.54-29.82-16-37"/><circle cx="60.49" cy="120.26" r="15.5"/><circle class="cls-6" cx="60.99" cy="115.76" r="5"/><circle cx="199.49" cy="119.26" r="15.5"/><path class="cls-7" d="M127.56,190.2c17,1,31.87-6.58,35.52-18.67,5.73-19-16.59-48.34-34.74-48.76h-2.53C99.65,129.6,87.52,156.28,92,171.53,95.49,183.56,110.41,192.09,127.56,190.2Z"/><circle class="cls-6" cx="198.99" cy="115.76" r="5"/><path class="cls-8" d="M127.55,185.8c15.74.9,29.52-6.08,32.89-17.29,5.31-17.6-15.36-44.75-32.16-45.14h-2.35c-24.21,6.33-35.44,31-31.32,45.14C97.87,179.66,111.68,187.56,127.55,185.8Z"/><rect x="103.84" y="155.58" width="22.22" height="6.83" rx="3.41" ry="3.41" transform="translate(-58.95 249.82) rotate(-81.71)"/><rect x="137.14" y="147.88" width="6.83" height="22.22" rx="3.41" ry="3.41" transform="translate(-21.45 21.92) rotate(-8.29)"/><path class="cls-9" d="M346,95.76c17.37-4.43,26.77-22.39,25-31-1.5-7.31-11.59-14.75-19-12s-10.83,14.94-7,20c6.79,9,40.55,2.47,44-12,1.57-6.59-3.51-13.37-4-14-5.72-7.42-14.62-7.94-16-8"/><path d="M76,277.63c11.92,5.35,26.85-1.95,28-2.54a31.23,31.23,0,0,0,14.47-14.73l-55.35-.52C64.51,268,69.29,274.62,76,277.63Z"/><path d="M188.49,280.59c4.82,2.23,10.18,1.83,12,1.7,13.79-1,23.47-11.77,29.42-20.88l-53.2-.5C178.07,270.57,182,277.61,188.49,280.59Z"/><path d="M274.66,261.83c.46,6.94,4,12.93,9.33,15.8,9.28,5,26.68,2.05,37-10.15,1.69-1.7,3.32-3.43,4.9-5.17Z"/><polygon class="cls-10" points="182.49 23.27 199.49 23.27 193.49 35.27 182.49 23.27"/><polygon class="cls-10" points="58.49 24.77 75.49 24.77 69.49 36.77 58.49 24.77"/></g></g></svg>
